<svg xmlns="http://www.w3.org/2000/svg" viewBox="0 0 406 406"><defs><style>.cls-1{fill:#fff;stroke:#fff;stroke-miterlimit:10;}.cls-2{fill:#216586;}</style></defs><title>Recurso 5</title><g id="Capa_2" data-name="Capa 2"><g id="Capa_1-2" data-name="Capa 1"><circle class="cls-1" cx="203" cy="203" r="202.5"/><path class="cls-2" d="M126.61,222.25h32.78V357.18a4.82,4.82,0,0,0,4.82,4.82h55.57a4.82,4.82,0,0,0,4.83-4.82V222.88h37.67a4.82,4.82,0,0,0,4.79-4.27l5.73-49.67a4.83,4.83,0,0,0-4.79-5.38h-43.4V132.42c0-9.38,5-14.14,15-14.14H268a4.82,4.82,0,0,0,4.82-4.82V67.86A4.82,4.82,0,0,0,268,63H228.9c-.28,0-.89,0-1.79,0-6.79,0-30.37,1.33-49,18.47-20.65,19-17.78,41.74-17.09,45.68v36.41H126.61a4.82,4.82,0,0,0-4.82,4.82v49A4.82,4.82,0,0,0,126.61,222.25Z"/></g></g></svg>