<svg xmlns="http://www.w3.org/2000/svg" viewBox="0 0 323 323"><defs><style>.cls-1{fill:#fff;stroke:#fff;stroke-miterlimit:10;}.cls-2{fill:#216586;}</style></defs><title>Recurso 1</title><g id="Capa_2" data-name="Capa 2"><g id="Capa_1-2" data-name="Capa 1"><circle class="cls-1" cx="161.5" cy="161.5" r="161"/><path class="cls-2" d="M265.23,96.9c-8.12-9.66-23.12-13.6-51.75-13.6h-104C80.23,83.3,65,87.49,56.89,97.77,49,107.8,49,122.56,49,143V182c0,39.6,9.36,59.7,60.52,59.7h104c24.83,0,38.59-3.48,47.49-12,9.13-8.73,13-23,13-47.7V143C274,121.45,273.39,106.59,265.23,96.9Zm-71.78,70.95-47.2,24.67a7.18,7.18,0,0,1-3.37.83,7.25,7.25,0,0,1-7.25-7.26V136.91a7.26,7.26,0,0,1,10.6-6.44L193.43,155a7.25,7.25,0,0,1,0,12.87Z"/></g></g></svg>