<svg xmlns="http://www.w3.org/2000/svg" viewBox="0 0 164 164"><defs><style>.cls-1{fill:#fff;stroke:#fff;stroke-miterlimit:10;}.cls-2{fill:#24647c;}</style></defs><title>Recurso 2</title><g id="Capa_2" data-name="Capa 2"><g id="Capa_1-2" data-name="Capa 1"><circle class="cls-1" cx="82" cy="82" r="81.5"/><path class="cls-2" d="M135.64,57.53a.48.48,0,0,0-.57-.14,38.86,38.86,0,0,1-9.15,2.78,20.27,20.27,0,0,0,7.14-10,.49.49,0,0,0-.71-.57,39.29,39.29,0,0,1-12.18,4.7A20.34,20.34,0,0,0,85.6,72.37,56,56,0,0,1,45.71,51.86a.51.51,0,0,0-.42-.18.52.52,0,0,0-.38.24A20.34,20.34,0,0,0,49.81,78a19.36,19.36,0,0,1-7.09-2.29.51.51,0,0,0-.48,0,.5.5,0,0,0-.24.41v.26A20.37,20.37,0,0,0,56.28,95.82a19.39,19.39,0,0,1-6.75-.09.47.47,0,0,0-.46.15.5.5,0,0,0-.1.47,20.33,20.33,0,0,0,17.64,14A39.08,39.08,0,0,1,43.33,118a40.36,40.36,0,0,1-4.67-.27.48.48,0,0,0-.32.88,56.61,56.61,0,0,0,30.66,9c35.63,0,56.92-28.94,56.92-56.91,0-.78,0-1.56,0-2.33a40.58,40.58,0,0,0,9.8-10.23A.48.48,0,0,0,135.64,57.53Z"/></g></g></svg>