<svg xmlns="http://www.w3.org/2000/svg" viewBox="0 0 266.21 350"><defs><style>.cls-1{fill:none;}</style></defs><title>Recurso 1</title><g id="Capa_2" data-name="Capa 2"><g id="Capa_1-2" data-name="Capa 1"><path class="cls-1" d="M133.1,171.17c38.92,0,70.47-38.31,70.47-85.58S193.21,0,133.1,0,62.64,38.32,62.64,85.59,94.19,171.17,133.1,171.17Z"/><path class="cls-1" d="M0,301.85c0-2.88,0-.81,0,0Z"/><path class="cls-1" d="M266.19,304.1c0-.78,0-5.47,0,0Z"/><path class="cls-1" d="M266,298.4c-1.31-82.35-12.06-105.81-94.35-120.66,0,0-11.59,14.76-38.59,14.76s-38.58-14.76-38.58-14.76c-81.4,14.69-92.81,37.81-94.31,118-.12,6.55-.18,6.89-.2,6.13,0,1.43,0,4.06,0,8.65,0,0,19.6,39.5,133.08,39.5s133.08-39.5,133.08-39.5c0-2.95,0-5,0-6.39C266.17,304.58,266.12,303.66,266,298.4Z"/></g></g></svg>