<svg xmlns="http://www.w3.org/2000/svg" viewBox="0 0 267.21 351"><defs><style>.cls-1{fill:#fff;stroke:#fff;stroke-miterlimit:10;}</style></defs><title>Recurso 2</title><g id="Capa_2" data-name="Capa 2"><g id="Capa_1-2" data-name="Capa 1"><path class="cls-1" d="M133.6,171.67c38.92,0,70.47-38.31,70.47-85.58S193.71.5,133.6.5,63.14,38.82,63.14,86.09,94.69,171.67,133.6,171.67Z"/><path class="cls-1" d="M.51,302.35c0-2.88,0-.81,0,0Z"/><path class="cls-1" d="M266.69,304.6c0-.78,0-5.47,0,0Z"/><path class="cls-1" d="M266.54,298.9c-1.31-82.35-12.06-105.81-94.35-120.66,0,0-11.59,14.76-38.59,14.76S95,178.24,95,178.24c-81.4,14.69-92.81,37.81-94.31,118-.12,6.55-.18,6.89-.2,6.13,0,1.43,0,4.06,0,8.65,0,0,19.6,39.5,133.08,39.5S266.68,311,266.68,311c0-2.95,0-5,0-6.39C266.67,305.08,266.62,304.16,266.54,298.9Z"/></g></g></svg>