<svg xmlns="http://www.w3.org/2000/svg" viewBox="0 0 461.3 367.31"><defs><style>.cls-1{fill:#216586;stroke:#216586;stroke-miterlimit:10;}</style></defs><title>Recurso 1</title><g id="Capa_2" data-name="Capa 2"><g id="Capa_1-2" data-name="Capa 1"><path class="cls-1" d="M230.65,74.44,66.49,209.78a3.69,3.69,0,0,1-.15.85,4.12,4.12,0,0,0-.14.86v137a18.55,18.55,0,0,0,18.27,18.28H194.1V257.17h73.1V366.81H376.83a18.56,18.56,0,0,0,18.28-18.28v-137a4.08,4.08,0,0,0-.29-1.71Z"/><path class="cls-1" d="M457.62,178.94,395.1,127V10.49A8.8,8.8,0,0,0,386,1.36H331.15A8.8,8.8,0,0,0,322,10.49V66.17L252.35,7.92a35.43,35.43,0,0,0-43.39,0L3.67,178.94a8.33,8.33,0,0,0-3.14,6.14,9.23,9.23,0,0,0,2,6.71l17.7,21.13a9.74,9.74,0,0,0,6,3.14,10.61,10.61,0,0,0,6.85-2L230.65,49.32,428.22,214.06a8.8,8.8,0,0,0,6,2h.85a9.76,9.76,0,0,0,6-3.13l17.7-21.13a9.22,9.22,0,0,0,2-6.71A8.31,8.31,0,0,0,457.62,178.94Z"/></g></g></svg>